<svg width="200" height="200" viewBox="0 0 200 200" fill="none" xmlns="http://www.w3.org/2000/svg">
<path d="M196.667 63C176 44.3333 155.333 25.3333 134.667 6.66666C104.333 52.6667 53 93.6667 4.33333 123.333C3 129.667 1.66667 135.667 0 141.667C21.3333 161 42.6667 180.667 64 200C114.333 172.333 167.667 133 200 88.3333C199 80 197.667 71.6667 196.667 63Z" fill="#699635"/>
<path d="M68 175.333C47 156 26 136.667 5 117.667C57.3333 88 101.333 47.6667 133.667 0C154.667 19.3333 175.667 38.3333 196.667 57.6667C164.333 105.333 120.333 145.667 68 175.333Z" fill="#83BF4F"/>
<path d="M62.6667 162.667C48.6667 150 34.6667 137 20.6667 124.333C21.6667 123.667 22.3333 123.333 23.3333 122.667C26 121 26.6667 118 24.3333 115.667L22.3333 113.667C64.6667 87.6666 101.333 54.3333 130 15.6667L132 17.6667C134.333 19.6667 137.667 19.3333 139.667 17C140.333 16.3333 140.667 15.3333 141.333 14.6667C155.333 27.3333 169.333 40.3333 183.333 53C182.667 53.6667 182.333 54.6667 181.667 55.3333C179.667 58 180 61.6667 182.333 64L184.333 66C155.667 104.333 119 137.667 76.6667 163.667L74.6667 161.667C72.3333 159.667 68.3333 159.333 65.3333 161C64.3333 161.667 63.6667 162 62.6667 162.667ZM29.6667 124.667C41 135 52.3333 145.333 64 156C68.3333 154.667 73.3333 155 77.3333 157C116 132.333 149.667 101.667 176.667 66C174.333 62.3333 174 57.6667 175.667 53.6667C164.333 43.3333 153 33 141.333 22.3333C138.333 25 134 25.3333 130.333 23.3333C103.333 59.3333 69.6667 90 31 114.667C33 118 32.6667 122 29.6667 124.667Z" fill="#699635"/>
<path d="M60 117.667C63.6667 116.333 67.6667 116.667 70.3333 119C68.6667 120.333 66.6667 121.667 65 123C64.3333 122.333 62.6667 122.333 62 123C61 123.667 60.6667 124.667 61.6667 125.333C62.3333 126 64 126 65 125.333C69 122.667 74.6667 122.333 77.6667 125.333C80 127.667 80.3333 131 78 133.667C78.6667 134.333 79.3333 134.667 80 135.333C78.3333 136.333 76.6667 137.667 75 138.667C74.3333 138 73.6667 137.333 73 137C69.3333 138 65.3333 137.667 63 135.333C65 134 66.6667 133 68.6667 131.667C69.3333 132.333 71 132.333 72 131.667C73 131 73 130 72.3333 129.333C71.6667 128.667 70.3333 128.667 69.3333 129.333C67 131 64 131.667 61.3333 131.333C59.3333 131 57.6667 130.333 56.3333 129.333C54 127 54 124 56 121.333C55.3333 121 55 120.333 54.3333 119.667C56 118.667 57.6667 117.333 59.3333 116.333C59 116.667 59.6667 117 60 117.667ZM137.333 46.3333C140.333 44.3333 144 44.3333 146.333 46.6666L142.333 51.6666C141.667 51 140.333 51 139.667 52C139 53 139 54.3333 139.667 55C140.333 55.6666 141.667 55.6666 142.333 54.6666C145.333 51 150.333 50.3333 153.333 53C155.667 55.3333 156.333 59 155 62.3333C155.667 63 156.333 63.3333 157 64C155.667 65.6666 154.667 67 153.333 68.6666C152.667 68 152 67.3333 151.333 67C148.333 68.6666 145 68.6666 142.667 66.3333C144 64.6666 145.667 63 147 61.3333C147.667 62 149 62 149.667 61C150.333 60 150.333 58.6666 149.667 58C149 57.3333 147.667 57.3333 147 58.3333C145.333 60.3333 142.667 61.6666 140.333 61.6666C138.667 61.6666 137 61 135.667 60C133.333 57.6666 132.667 54.3333 134 51C133.333 50.6666 133 50 132.333 49.3333C133.667 48 135 46.3333 136 44.6666C136 45.3333 136.667 45.6666 137.333 46.3333ZM127.333 111.667C116.667 121.333 98.6667 121 88.3333 111.667C78 102 78.6667 87 89.3333 77.3333C100 67.6666 116.667 66.6666 127 76.3333C137.667 85.6666 138 102 127.333 111.667Z" fill="#699635"/>
<path d="M66 75L129 132.667C136.333 126.667 143 120.333 149.667 113.667L87 56C80.3333 62.3333 73.3333 68.6667 66 75Z" fill="#FFDD7D"/>
<path d="M129.333 158C136.333 152.667 143.333 147 150 141.333V113.333C143.333 120 136.333 126.333 129.333 132.333V158Z" fill="#DBB471"/>
<path d="M33.6667 75.6667C37.3333 74.3334 40.3333 72.3334 43.3333 70.0001C46.3333 67.6667 49 65.3334 52 62.6667C55 60.3334 58 57.6667 61.3333 56.0001C64.6667 54.0001 69 53.0001 72.6667 53.6667C69 54.3334 65.6667 56.0001 62.6667 58.3334C59.6667 60.3334 57 63.0001 54 65.3334C51 67.6667 48 70.3334 44.6667 72.3334C41.3333 74.3334 37.3333 75.6667 33.6667 75.6667Z" fill="#8D9998"/>
<path d="M126 103.667C126 103.667 142.333 108.333 180.333 98.3333C218.333 88.3333 200.333 197.667 131 197.667C123.333 197.667 123 188 144.333 170.667C144.333 170.667 114.333 177.667 127.333 155.333C127.333 155.333 106 159 115.667 142C115.667 142 120 129.333 116 115C116.333 115 118.667 107.667 126 103.667Z" fill="#E8E8E8"/>
<path d="M198.333 109C199 138.333 175.667 187 129.333 187H128.667C124.333 194 126.333 198 131 198C183.667 197.667 206.667 135 198.333 109Z" fill="#D1D1D1"/>
<path d="M174.333 125C164.333 161 124.333 164 124.333 164C122.667 171.667 126 175 130.333 175C145 175.333 172.333 151 174.333 125ZM146.333 125C122.667 158.333 114.333 146 114.333 146C108.333 159.333 124 159.333 126.667 156.333C134.333 148 146.667 130.667 146.333 125Z" fill="#D1D1D1"/>
<path d="M128.333 188C132.333 182.667 137.333 178.333 142.333 174C147.333 169.667 152.333 165.333 157.333 160.667C162 156 166.667 150.667 170 144.667C173.333 138.667 175 131.667 174.333 125C173.667 131.667 171.333 138 167.667 143.333C164 148.667 159.667 153.667 155 158.333C150.333 163 145.333 167.333 140.667 172.333C135.667 176.667 131.333 182 128.333 188ZM124.333 164C125.667 160.333 127.667 157.333 130 154.333C132.333 151.333 134.667 148.667 137.333 145.667C139.667 142.667 142.333 139.667 144 136.333C146 133 147 128.667 146.333 125C145.667 128.667 144 132 141.667 135C139.667 138 137 140.667 134.667 143.667C132.333 146.667 129.667 149.667 127.667 153C125.667 156.333 124.333 160.333 124.333 164Z" fill="#8D9998"/>
<path d="M94 74C94 74 89.3333 57.6667 99.3333 19.6667C109.333 -18.3333 0 -0.333322 0 69C0 76.6667 9.66667 77 27 55.6667C27 55.6667 20 85.6667 42.3333 72.6667C42.3333 72.6667 38.6667 94 55.6667 84.3333C55.6667 84.3333 68.3333 80 82.6667 84C82.6667 83.6667 90 81.3333 94 74Z" fill="#E8E8E8"/>
<path d="M88.6667 1.66663C59.3333 0.999965 10.6667 24.3333 10.6667 70.6666V71.3333C3.66667 75.3333 0 73.6666 0 69C0 16.3333 62.6667 -6.6667 88.6667 1.66663Z" fill="#D1D1D1"/>
<path d="M72.6667 25.6667C36.6667 35.6667 33.6667 75.6667 33.6667 75.6667C26 77.3334 22.6667 74.0001 22.6667 69.6667C22.3333 55.0001 46.6667 27.6667 72.6667 25.6667ZM72.6667 53.6667C39.3333 77.3334 51.6667 85.6667 51.6667 85.6667C38.3333 91.6667 38.3333 76.0001 41.3333 73.3334C49.6667 65.6667 67 53.3334 72.6667 53.6667Z" fill="#D1D1D1"/>
<path d="M9.66667 71.6667C15 67.6667 19.3333 62.6667 23.6667 57.6667C28 52.6667 32.3333 47.6667 37 42.6667C41.6667 38 47 33.3333 53 30C59 26.6667 66 25 72.6667 25.6667C66 26.3333 59.6667 28.6667 54.3333 32.3333C49 36 44 40.3333 39.3333 45C34.6667 49.6667 30.3333 54.6667 25.3333 59.3333C20.6667 64.3333 15.6667 68.6667 9.66667 71.6667Z" fill="#8D9998"/>
<path d="M33.6667 75.6667C37.3333 74.3334 40.3333 72.3334 43.3333 70.0001C46.3333 67.6667 49 65.3334 52 62.6667C55 60.3334 58 57.6667 61.3333 56.0001C64.6667 54.0001 69 53.0001 72.6667 53.6667C69 54.3334 65.6667 56.0001 62.6667 58.3334C59.6667 60.3334 57 63.0001 54 65.3334C51 67.6667 48 70.3334 44.6667 72.3334C41.3333 74.3334 37.3333 75.6667 33.6667 75.6667Z" fill="#8D9998"/>
</svg>
